# xmcd
#
# Track frame offsets:
#	150
#	14368
#	26123
#	41133
#	60252
#	70807
#	86318
#	96549
#	109749
#	123793
#
# Disc length: 1760 seconds
# Revision: 0
# Processed by: cddbd v1.5.2PL0 Copyright (c) Steve Scherf et al.
# Submitted via: dBpowerAMP V12.0
#
DISCID=7c06de0a
DTITLE=Moore Brothers Band - Pick it Brother
DYEAR=2012
DGENRE=Country
TTITLE0=At The Crossroads
TTITLE1=Gold Rush
TTITLE2=Pick it Brother
TTITLE3=This Train
TTITLE4=Osmosis
TTITLE5=I've Just Seen the Rock of Ages
TTITLE6=Paul and Silas
TTITLE7=Minor Swing
TTITLE8=Good Woman's Love
TTITLE9=Pig in a Pen
EXTD=
EXTT0=
EXTT1=
EXTT2=
EXTT3=
EXTT4=
EXTT5=
EXTT6=
EXTT7=
EXTT8=
EXTT9=
PLAYORDER=
